<mxfile host="Electron" modified="2024-07-07T08:34:11.748Z" agent="Mozilla/5.0 (Windows NT 10.0; Win64; x64) AppleWebKit/537.36 (KHTML, like Gecko) draw.io/24.6.4 Chrome/124.0.6367.207 Electron/30.0.6 Safari/537.36" etag="BiFOrSRvP9FMlt9-8N-r" version="24.6.4" type="device">
  <diagram name="第 1 页" id="zv99fCxGXwI9MNwFD-Q6">
    <mxGraphModel dx="1767" dy="702" grid="1" gridSize="10" guides="1" tooltips="1" connect="1" arrows="1" fold="1" page="1" pageScale="1" pageWidth="827" pageHeight="1169" math="0" shadow="0">
      <root>
        <mxCell id="0" />
        <mxCell id="1" parent="0" />
        <mxCell id="cZejpY4EVG10ptzULaNT-14" style="edgeStyle=entityRelationEdgeStyle;rounded=0;orthogonalLoop=1;jettySize=auto;html=1;dashed=1;dashPattern=8 8;" edge="1" parent="1" source="cZejpY4EVG10ptzULaNT-1" target="cZejpY4EVG10ptzULaNT-6">
          <mxGeometry relative="1" as="geometry" />
        </mxCell>
        <mxCell id="cZejpY4EVG10ptzULaNT-1" value="PlayableAsset" style="swimlane;fontStyle=0;childLayout=stackLayout;horizontal=1;startSize=30;horizontalStack=0;resizeParent=1;resizeParentMax=0;resizeLast=0;collapsible=1;marginBottom=0;whiteSpace=wrap;html=1;fillColor=#91D3FF;" vertex="1" parent="1">
          <mxGeometry x="180" y="330" width="240" height="140" as="geometry" />
        </mxCell>
        <mxCell id="cZejpY4EVG10ptzULaNT-5" value="每个时间轴上Clip的数据封装&lt;br&gt;一个Timeline落地后保存的数据队形" style="rounded=0;whiteSpace=wrap;html=1;" vertex="1" parent="cZejpY4EVG10ptzULaNT-1">
          <mxGeometry y="30" width="240" height="50" as="geometry" />
        </mxCell>
        <mxCell id="cZejpY4EVG10ptzULaNT-30" value="CreatePlayable()--调用创建一个对应的PlayableBehaviour结构来执行对应行为。" style="rounded=0;whiteSpace=wrap;html=1;align=left;verticalAlign=top;" vertex="1" parent="cZejpY4EVG10ptzULaNT-1">
          <mxGeometry y="80" width="240" height="60" as="geometry" />
        </mxCell>
        <mxCell id="cZejpY4EVG10ptzULaNT-6" value="PlayableBehaviour" style="swimlane;fontStyle=0;childLayout=stackLayout;horizontal=1;startSize=30;horizontalStack=0;resizeParent=1;resizeParentMax=0;resizeLast=0;collapsible=1;marginBottom=0;whiteSpace=wrap;html=1;fillColor=#CCFFCC;" vertex="1" parent="1">
          <mxGeometry x="520" y="330" width="240" height="140" as="geometry" />
        </mxCell>
        <mxCell id="cZejpY4EVG10ptzULaNT-7" value="每个时间轴Clip所对应的执行对象" style="rounded=0;whiteSpace=wrap;html=1;" vertex="1" parent="cZejpY4EVG10ptzULaNT-6">
          <mxGeometry y="30" width="240" height="50" as="geometry" />
        </mxCell>
        <mxCell id="cZejpY4EVG10ptzULaNT-8" value="约定的，运行调用接口&lt;br&gt;OnBehaviourPlay()--Behaviour开始逻辑&lt;br&gt;ProcessFrame()--运行时每帧逻辑&lt;br&gt;&lt;div&gt;&lt;br&gt;&lt;/div&gt;" style="rounded=0;whiteSpace=wrap;html=1;align=left;verticalAlign=top;" vertex="1" parent="cZejpY4EVG10ptzULaNT-6">
          <mxGeometry y="80" width="240" height="60" as="geometry" />
        </mxCell>
        <mxCell id="cZejpY4EVG10ptzULaNT-12" style="edgeStyle=entityRelationEdgeStyle;rounded=0;orthogonalLoop=1;jettySize=auto;html=1;" edge="1" parent="1" source="cZejpY4EVG10ptzULaNT-9" target="cZejpY4EVG10ptzULaNT-1">
          <mxGeometry relative="1" as="geometry" />
        </mxCell>
        <mxCell id="cZejpY4EVG10ptzULaNT-9" value="TrackAsset" style="swimlane;fontStyle=0;childLayout=stackLayout;horizontal=1;startSize=30;horizontalStack=0;resizeParent=1;resizeParentMax=0;resizeLast=0;collapsible=1;marginBottom=0;whiteSpace=wrap;html=1;fillColor=#91D3FF;" vertex="1" parent="1">
          <mxGeometry x="-180" y="360" width="240" height="80" as="geometry" />
        </mxCell>
        <mxCell id="cZejpY4EVG10ptzULaNT-10" value="相当于Timeline中一条轴Track的数据封装" style="rounded=0;whiteSpace=wrap;html=1;" vertex="1" parent="cZejpY4EVG10ptzULaNT-9">
          <mxGeometry y="30" width="240" height="50" as="geometry" />
        </mxCell>
        <mxCell id="cZejpY4EVG10ptzULaNT-13" value="包含一个&lt;br&gt;PlayableAsset列表" style="text;html=1;align=center;verticalAlign=middle;resizable=0;points=[];autosize=1;strokeColor=none;fillColor=none;" vertex="1" parent="1">
          <mxGeometry x="60" y="360" width="120" height="40" as="geometry" />
        </mxCell>
        <mxCell id="cZejpY4EVG10ptzULaNT-19" style="edgeStyle=orthogonalEdgeStyle;rounded=0;orthogonalLoop=1;jettySize=auto;html=1;endArrow=block;endFill=0;" edge="1" parent="1" source="cZejpY4EVG10ptzULaNT-15" target="cZejpY4EVG10ptzULaNT-1">
          <mxGeometry relative="1" as="geometry" />
        </mxCell>
        <mxCell id="cZejpY4EVG10ptzULaNT-15" value="xxxPlayableAsset" style="swimlane;fontStyle=0;childLayout=stackLayout;horizontal=1;startSize=30;horizontalStack=0;resizeParent=1;resizeParentMax=0;resizeLast=0;collapsible=1;marginBottom=0;whiteSpace=wrap;html=1;fillColor=#91D3FF;" vertex="1" parent="1">
          <mxGeometry x="180" y="540" width="240" height="130" as="geometry" />
        </mxCell>
        <mxCell id="cZejpY4EVG10ptzULaNT-22" value="实现自己的Playable数据结构" style="rounded=0;whiteSpace=wrap;html=1;" vertex="1" parent="cZejpY4EVG10ptzULaNT-15">
          <mxGeometry y="30" width="240" height="50" as="geometry" />
        </mxCell>
        <mxCell id="cZejpY4EVG10ptzULaNT-29" value="可以绑定一系列对象&lt;br&gt;表示这个Clip操作内绑定的对象" style="rounded=0;whiteSpace=wrap;html=1;" vertex="1" parent="cZejpY4EVG10ptzULaNT-15">
          <mxGeometry y="80" width="240" height="50" as="geometry" />
        </mxCell>
        <mxCell id="cZejpY4EVG10ptzULaNT-21" style="edgeStyle=orthogonalEdgeStyle;rounded=0;orthogonalLoop=1;jettySize=auto;html=1;endArrow=block;endFill=0;" edge="1" parent="1" source="cZejpY4EVG10ptzULaNT-20" target="cZejpY4EVG10ptzULaNT-6">
          <mxGeometry relative="1" as="geometry" />
        </mxCell>
        <mxCell id="cZejpY4EVG10ptzULaNT-20" value="xxxPlayableBehaviour" style="swimlane;fontStyle=0;childLayout=stackLayout;horizontal=1;startSize=30;horizontalStack=0;resizeParent=1;resizeParentMax=0;resizeLast=0;collapsible=1;marginBottom=0;whiteSpace=wrap;html=1;fillColor=#CCFFCC;" vertex="1" parent="1">
          <mxGeometry x="520" y="540" width="240" height="90" as="geometry" />
        </mxCell>
        <mxCell id="cZejpY4EVG10ptzULaNT-23" value="继承以实现自己的运行调用行为" style="rounded=0;whiteSpace=wrap;html=1;" vertex="1" parent="cZejpY4EVG10ptzULaNT-20">
          <mxGeometry y="30" width="240" height="60" as="geometry" />
        </mxCell>
        <mxCell id="cZejpY4EVG10ptzULaNT-27" style="edgeStyle=orthogonalEdgeStyle;rounded=0;orthogonalLoop=1;jettySize=auto;html=1;endArrow=block;endFill=0;" edge="1" parent="1" source="cZejpY4EVG10ptzULaNT-24" target="cZejpY4EVG10ptzULaNT-9">
          <mxGeometry relative="1" as="geometry" />
        </mxCell>
        <mxCell id="cZejpY4EVG10ptzULaNT-24" value="xxxTrackAsset" style="swimlane;fontStyle=0;childLayout=stackLayout;horizontal=1;startSize=30;horizontalStack=0;resizeParent=1;resizeParentMax=0;resizeLast=0;collapsible=1;marginBottom=0;whiteSpace=wrap;html=1;fillColor=#91D3FF;" vertex="1" parent="1">
          <mxGeometry x="-180" y="540" width="240" height="130" as="geometry" />
        </mxCell>
        <mxCell id="cZejpY4EVG10ptzULaNT-25" value="继承TrackAsset&lt;br&gt;实现一条自定义的轴效果" style="rounded=0;whiteSpace=wrap;html=1;" vertex="1" parent="cZejpY4EVG10ptzULaNT-24">
          <mxGeometry y="30" width="240" height="50" as="geometry" />
        </mxCell>
        <mxCell id="cZejpY4EVG10ptzULaNT-28" value="可以绑定一系列对象&lt;br&gt;表示这个轴所操作的共同数据对象" style="rounded=0;whiteSpace=wrap;html=1;" vertex="1" parent="cZejpY4EVG10ptzULaNT-24">
          <mxGeometry y="80" width="240" height="50" as="geometry" />
        </mxCell>
      </root>
    </mxGraphModel>
  </diagram>
</mxfile>
